<svg xmlns="http://www.w3.org/2000/svg" xmlns:xlink="http://www.w3.org/1999/xlink" version="1.1" style="" xml:space="preserve" width="122" height="122"><rect id="backgroundrect" width="100%" height="100%" x="0" y="0" fill="none" stroke="none"/>
<style type="text/css">
	.st0{fill:#ECB32D;}
	.st1{fill:#63C1A0;}
	.st2{fill:#E01A59;}
	.st3{fill:#331433;}
	.st4{fill:#D62027;}
	.st5{fill:#89D3DF;}
	.st6{fill:#258B74;}
	.st7{fill:#819C3C;}
</style>

<g class="currentLayer" style=""><title>Layer 1</title><g id="svg_1" class="">
	<g id="svg_2">
		<path class="st0" d="M79.03035430908204,7.511178588867182 c-1.9,-5.7 -8,-8.8 -13.7,-7 c-5.7,1.9 -8.8,8 -7,13.7 l28.1,86.4 c1.9,5.3 7.7,8.3 13.2,6.7 c5.8,-1.7000000000000002 9.3,-7.8 7.4,-13.4 C107.03035430908204,93.7111785888672 79.03035430908204,7.511178588867182 79.03035430908204,7.511178588867182 z" id="svg_3"/>
		<path class="st1" d="M35.53035430908203,21.61117858886719 c-1.9,-5.7 -8,-8.8 -13.7,-7 c-5.7,1.9 -8.8,8 -7,13.7 l28.1,86.4 c1.9,5.3 7.7,8.3 13.2,6.7 c5.8,-1.7000000000000002 9.3,-7.8 7.4,-13.4 C63.53035430908204,107.8111785888672 35.53035430908203,21.61117858886719 35.53035430908203,21.61117858886719 z" id="svg_4"/>
		<path class="st2" d="M114.43035430908202,79.01117858886718 c5.7,-1.9 8.8,-8 7,-13.7 c-1.9,-5.7 -8,-8.8 -13.7,-7 l-86.5,28.2 c-5.3,1.9 -8.3,7.7 -6.7,13.2 c1.7000000000000002,5.8 7.8,9.3 13.4,7.4 C28.130354309082037,107.11117858886718 114.43035430908202,79.01117858886718 114.43035430908202,79.01117858886718 z" id="svg_5"/>
		<path class="st3" d="M39.23035430908203,103.51117858886718 c5.6,-1.8 12.9,-4.2 20.7,-6.7 c-1.8,-5.6 -4.2,-12.9 -6.7,-20.7 l-20.7,6.7 L39.23035430908203,103.51117858886718 z" id="svg_6"/>
		<path class="st4" d="M82.83035430908203,89.3111785888672 c7.8,-2.5 15.1,-4.9 20.7,-6.7 c-1.8,-5.6 -4.2,-12.9 -6.7,-20.7 l-20.7,6.7 L82.83035430908203,89.3111785888672 z" id="svg_7"/>
		<path class="st5" d="M100.23035430908203,35.51117858886718 c5.7,-1.9 8.8,-8 7,-13.7 c-1.9,-5.7 -8,-8.8 -13.7,-7 l-86.4,28.1 c-5.3,1.9 -8.3,7.7 -6.7,13.2 c1.7000000000000002,5.8 7.8,9.3 13.4,7.4 C14.030354309082028,63.51117858886718 100.23035430908203,35.51117858886718 100.23035430908203,35.51117858886718 z" id="svg_8"/>
		<path class="st6" d="M25.130354309082037,59.91117858886719 c5.6,-1.8 12.9,-4.2 20.7,-6.7 c-2.5,-7.8 -4.9,-15.1 -6.7,-20.7 l-20.7,6.7 L25.130354309082037,59.91117858886719 z" id="svg_9"/>
		<path class="st7" d="M68.63035430908204,45.81117858886719 c7.8,-2.5 15.1,-4.9 20.7,-6.7 c-2.5,-7.8 -4.9,-15.1 -6.7,-20.7 l-20.7,6.7 L68.63035430908204,45.81117858886719 z" id="svg_10"/>
	</g>
</g></g></svg>